<svg width="97.601" height="73.001" viewBox="0 0 97.601 73.001" xmlns="http://www.w3.org/2000/svg"><g id="svgGroup" stroke-linecap="round" fill-rule="evenodd" font-size="9pt" stroke="#000" stroke-width="0.25mm" fill="#000" style="stroke:#000;stroke-width:0.25mm;fill:#000"><path d="M 96.2 16.3 L 90.2 16.3 Q 89.4 10.1 84.75 7.7 Q 81.178 5.857 75.867 5.429 A 42.009 42.009 0 0 0 72.5 5.3 Q 63.8 5.3 59.6 8.65 A 10.82 10.82 0 0 0 55.714 15.181 A 16.626 16.626 0 0 0 55.4 18.5 Q 55.4 21.463 56.282 23.575 A 8.516 8.516 0 0 0 56.85 24.7 Q 58.3 27.1 60.6 28.55 Q 62.9 30 65.5 30.85 Q 68.1 31.7 70.3 32.3 L 78 34.4 Q 80.9 35.2 84.3 36.4 Q 87.7 37.6 90.75 39.7 Q 93.8 41.8 95.7 45.1 A 13.558 13.558 0 0 1 97.168 48.993 Q 97.6 50.965 97.6 53.3 Q 97.6 58.9 94.9 63.4 A 16.666 16.666 0 0 1 89.817 68.666 A 22.291 22.291 0 0 1 86.6 70.45 A 25.606 25.606 0 0 1 81.323 72.148 Q 78.827 72.681 75.927 72.88 A 52.83 52.83 0 0 1 72.3 73 A 45.971 45.971 0 0 1 65.577 72.541 Q 58.763 71.532 54.5 68.3 A 17.314 17.314 0 0 1 47.587 56.343 A 22.145 22.145 0 0 1 47.5 55.6 L 53.7 55.6 A 17.601 17.601 0 0 0 54.357 58.703 Q 54.896 60.417 55.78 61.732 A 9.342 9.342 0 0 0 56.8 63 Q 59.3 65.6 63.25 66.65 Q 67.077 67.667 71.982 67.699 A 49.031 49.031 0 0 0 72.3 67.7 A 38.535 38.535 0 0 0 77.645 67.354 Q 80.361 66.972 82.588 66.171 A 16.646 16.646 0 0 0 86.55 64.15 A 11.462 11.462 0 0 0 91.244 56.806 A 18.199 18.199 0 0 0 91.6 53.1 A 15.219 15.219 0 0 0 91.346 50.231 Q 90.861 47.707 89.45 46 A 13.76 13.76 0 0 0 85.685 42.859 A 17.383 17.383 0 0 0 83.75 41.9 Q 80.2 40.4 76.1 39.3 L 66.5 36.7 Q 60.352 34.976 56.312 32.24 A 21.023 21.023 0 0 1 53.85 30.3 Q 49.4 26.2 49.4 19 A 20.441 20.441 0 0 1 50.026 13.832 A 16.212 16.212 0 0 1 52.25 8.85 A 17.556 17.556 0 0 1 58.168 3.4 A 22.124 22.124 0 0 1 60.35 2.3 A 26.266 26.266 0 0 1 66.429 0.514 Q 69.2 0.034 72.35 0.003 A 44.505 44.505 0 0 1 72.8 0 Q 79.041 0 83.732 1.63 A 23.295 23.295 0 0 1 84.85 2.05 A 22.115 22.115 0 0 1 89.312 4.456 A 17.494 17.494 0 0 1 92.85 7.75 Q 95.8 11.4 96.2 16.3 Z M 0 71.7 L 0 1 L 40.3 1 L 40.3 6.2 L 6 6.2 L 6 33.7 L 37 33.7 L 37 38.9 L 6 38.9 L 6 71.7 L 0 71.7 Z" vector-effect="non-scaling-stroke"/></g></svg>